<?xml version="1.0" encoding="UTF-8"?>
<svg width="896px" height="1024px" viewBox="0 0 896 1024" version="1.1" xmlns="http://www.w3.org/2000/svg" xmlns:xlink="http://www.w3.org/1999/xlink">
    <!-- Generator: Sketch 49.2 (51160) - http://www.bohemiancoding.com/sketch -->
    <title>Group 3</title>
    <desc>Created with Sketch.</desc>
    <defs></defs>
    <g id="Page-1" stroke="none" stroke-width="1" fill="none" fill-rule="evenodd">
        <g id="Group-3">
            <g id="flash">
                <path d="M81.6,0 C36.8,0 0,36.8 0,81.6 L0,942.4 C0,987.2 36.8,1024 81.6,1024 L814.4,1024 C859.2,1024 896,987.2 896,942.4 L896,324.8 L593.6,0 L81.6,0 Z" id="Shape" fill="#3C4FE5" fill-rule="nonzero"></path>
                <path d="M896,324.8 L896,340.8 L691.2,340.8 C691.2,340.8 590.4,321.6 592,233.6 C592,233.6 595.2,324.8 688,324.8 L896,324.8 Z" id="Shape" fill="#3C4FE5" fill-rule="nonzero"></path>
                <path d="M593.6,0 L593.6,233.6 C593.6,259.2 611.2,324.8 691.2,324.8 L896,324.8 L593.6,0 Z" id="Shape" fill="#FFFFFF" fill-rule="nonzero"></path>
                <text id="HLS" font-family="LucidaGrande, Lucida Grande" font-size="280" font-weight="normal" letter-spacing="13.4399996" fill="#FFFFFF">
                    <tspan x="158" y="861">HL</tspan>
                    <tspan x="539.938593" y="861" letter-spacing="14.4738455">S</tspan>
                </text>
            </g>
        </g>
    </g>
</svg>